<?xml version="1.0" encoding="utf-8"?>
<!-- Generator: Adobe Illustrator 21.0.0, SVG Export Plug-In . SVG Version: 6.00 Build 0)  -->
<svg version="1.1" xmlns="http://www.w3.org/2000/svg" xmlns:xlink="http://www.w3.org/1999/xlink" x="0px" y="0px" width="355.9px"
	 height="274.8px" viewBox="0 0 355.9 274.8" style="enable-background:new 0 0 355.9 274.8;" xml:space="preserve">
<g id="Layer_1">
</g>
<g id="Design">
	<g>
		<g>
			<path d="M201.2,192.9c0-0.7-0.4-1.5-0.4-1.8c0-0.4,0.6-0.7,1.3-0.7c3.3,0,6.4,2,6.4,6c0,8.4-6.9,23.8-12.6,33.3
				c-0.3,0.6,0.1,0.7,0.3,0.3c4.6-5.7,12.6-10.6,17.1-10.6c2.5,0,4.3,1.7,4.3,4.1c0,5.5-7.3,17.3-7.3,21.7c0,1.8,0.8,2.3,1.9,2.3
				c5.5,0,21-19.1,21-28.7c0-0.7-0.1-0.8-0.1-1.2c0-0.4,0.6-0.7,1.3-0.7c3.5,0,6.9,1.7,6.9,5c0,5.5-9.1,19.2-9.1,23.2
				c0,0.9,0.4,1.7,1.8,1.7c3.5,0,7-2.8,10.7-7.1c4.4-5.2,9-15.2,9-19.4c0-0.7-0.1-0.8-0.1-1.2c0-0.4,0.6-0.7,1.3-0.7
				c2,0,6.1,1.9,6.1,7c0,5.5-8.7,17.7-8.7,21.5c0,1.8,1,2.3,2,2.3c4.5,0,12.9-7.1,18.3-14.9c-0.6-2.8-0.9-5.5-0.9-8.4
				c0-4.4,1.9-8.1,4.7-8.1c2.8,0,3.5,3.4,3.5,6.3c0,3.3-1.5,7-3.7,10.6c2.1,6.6,6,11.9,6,18.6c0,7.6-3.9,14.1-12.2,14.1
				c-6.9,0-10.7-5.3-10.7-10c0-2.1,0.6-2.8,1.1-2.8c0.4,0,0.7,0.3,1.2,1.5c1,2.3,3,4.1,6.8,4.1c4.8,0,6.5-4,6.5-9.2
				c0-4.6-0.9-8.9-1.8-13.1c-6.4,8.4-16.3,16.5-22.9,16.5c-4.7,0-7.1-2.7-7.1-6.5c0-1.5,0.3-2.2,0.6-2.8c0.3-0.6,0-0.6-0.3-0.3
				c-5.7,5.9-9.5,8.5-14.9,8.5c-3.2,0-6.2-2-6.2-6.6c0-1.2,0.2-2.5,0.6-3.6c-5.7,6.8-10.7,9.9-16.5,9.9c-3.6,0-6.1-2.3-6.1-7.2
				c0-5.9,7-16.5,7-18.9c0-0.4-0.2-0.9-0.8-0.9c-3.9,0-14.9,12.6-21.4,24.4c-1.2,2.2-1.9,3.3-3.1,3.3c-1.9,0-3.1-2.5-3.1-4.7
				c0-1.6,0.7-3.9,1.8-6.6c-6,6.3-14.4,11.4-22.3,11.4c-4.9,0-7.5-2.3-8.6-6c-3.3,2.5-8.1,5-13.3,5c-7.2,0-10.7-4.6-11.8-11.9
				c-0.1-1.2-0.3-1.8,0.8-2.3c8.4-4.3,14.2-9.5,14.2-13.3c0-1.2-0.5-2.1-2.1-2.1c-7.3,0-17.1,11-24.6,27.2c-1,2.3-1.9,3.3-3.1,3.3
				c-1.9,0-3.1-2.5-3.1-4.7c0-1.5,0.6-3.6,1.6-6c-5.3,6.1-10.2,9.9-14.6,9.9c-3.2,0-4.8-1.9-4.8-5.7c0-4.1,1.9-7.7,3-9.6
				c0.4-0.7,0.1-1.1-0.5-0.5c-2.6,2.4-10.2,16.5-18.6,16.5c-3.5,0-6.3-2.9-6.3-7.9c0-13.2,14.9-28.1,28.1-28.1
				c4.8,0,6.8,3.3,6.8,5.9c0,0.4-0.3,0.9-0.8,0.9c-0.8,0-1.6-0.8-3.3-0.8c-10.6,0-20.5,11.3-20.5,17.9c0,0.9,0.3,2,1.3,2
				c5.5,0,13.3-14.9,20.3-14.9c2.4,0,3,1.6,3,3.3c0,4.1-4.8,11.1-4.8,14.4c0,0.9,0.5,1.2,1,1.2c3.8,0,12.7-10.1,17.8-19.6v0.1
				c6.2-12,13.3-25.9,13.3-35.1c0-0.7-0.4-1.5-0.4-1.8c0-0.4,0.6-0.7,1.3-0.7c3.3,0,6.4,2,6.4,6c0,8.4-4.7,19.9-10.4,29.4
				c-0.3,0.6,0.1,0.7,0.3,0.3c5.7-6.1,11.9-9.1,17.4-9.1c4,0,5.3,2.6,5.3,5c0,6.5-6,11.8-13.8,15.9c-0.7,0.4-0.8,0.8-0.7,1.8
				c1,6.3,3.8,8.9,7,8.9c2.9,0,5.1-1,7.9-3.2c-0.1-0.7-0.1-1.4-0.1-2.2c0-12.2,12.2-25,24.3-25c5.1,0,7.1,2.8,7.1,6.5
				c0,7.7-13,14.5-22.5,16.4c-0.1,0.9-0.2,1.7-0.2,2.5c0,3.3,1.4,5.4,4.5,5.4c8.4,0,18.1-8.2,23-16.1
				C191.9,219.9,201.2,203.3,201.2,192.9z M158.8,237.4c9.3-2.6,16.7-8.5,16.7-13.9c0-1.4-0.6-1.9-1.6-1.9
				C168.4,221.6,161.5,229.3,158.8,237.4z M316.5,245.4c0-1.2,0.1-2.2,0.3-3.1c-5.4,6.8-13.9,13.3-22.5,13.3
				c-6.7,0-9.3-5.1-9.3-11.6c0-11.4,10.9-23.6,21.6-23.6c4.7,0,7,2.4,7,6c0,7.7-11,14.5-19.9,17.2c-0.1,0.5-0.1,1-0.1,1.5
				c0,3.3,1.4,5.4,4.5,5.4c7.7,0,14.7-6.7,22-16.4c1.4-1.8,3.5-5.1,5.9-9.3c-2.7,0.4-4.9,0.7-5.7,0.7c-1,0.1-1.7-0.4-1.8-1.5
				c-0.1-1.1,0.7-2.3,3-2.5c1.8-0.1,4.1-0.3,6.6-0.5c2.8-4.9,5.8-10.7,8.6-16.7c0.3-0.5,0.6-0.4,0.9,0.1c2.6,3.9,5.1,4.4,5.1,7
				c0,2.3-1.1,4-4.2,8.5c4-0.4,7.6-0.8,9.5-0.9c1.9-0.1,0.8,2.4-2.3,2.9l-9.5,1.5c-8.6,13-10.5,18.5-10.5,24.4
				c0,3.4,1.7,6.4,5.7,6.4c4.5,0,7.5-4.1,10.3-8.4c0.8-1.3,2.3-0.8,1.4,0.9c-3.6,6.7-8.1,11.4-15.6,11.4
				C320.2,258.1,316.5,253,316.5,245.4z M294.3,240.2c9.2-3.5,14.3-9,14.3-14.5c0-0.9-0.3-1.7-1.5-1.7
				C301.8,223.9,296.1,232.4,294.3,240.2z M37.8,187.8c-13.7,0-20,7.9-20,12.5c0,1.9,0.7,2.5,2.6,2.8c0.6,0.1,0.7,0.3,0.5,0.9
				c-0.5,1.8-2.7,3.5-5.3,3.5c-2.2,0-5.5-0.9-5.5-5.2c0-6.6,8-18.1,28.4-18.1c17,0,24.6,8,24.6,17.1c0,8.2-5.3,13.2-16.5,18.6
				c-1,0.4-0.8,1.1,0.1,1.2c9.5,1.7,16.2,7.6,16.2,15.9c0,12.6-13.4,22-31.2,22c-12.7,0-21-5.1-25.8-10.2c-1.4-1.5,0.3-2.8,1.2-2
				c4.8,4,11.7,7.7,22.3,7.7c14.1,0,22-6.4,22-16.6c0-8.6-4.2-12.1-14.4-15.7c-1.3-0.5-1.6-1.7,0.1-2.5
				c12.2-5.8,15.8-11.4,15.8-18.3C53,192.2,46.5,187.8,37.8,187.8z M21.5,248.3c0,0.5-0.1,0.8-1.1,0.8c-3.5,0-6.5-1.5-6.5-6.8
				c0-7.9,17.8-29.2,17.8-48c0-1.1-0.3-2.1-0.3-2.5c0-0.4,0.6-0.7,1.3-0.7c4.9,0,7.3,4.3,7.3,7.5c0,12.8-13.6,31.8-17.6,44.8
				C21.7,246.1,21.6,246.9,21.5,248.3z"/>
		</g>
	</g>
	<g>
		<g>
			<g>
				<path d="M150.8,158.4c0.1,1.1-0.2,2.9-0.1,4c0.1,1.2,0.5,1.8,0.5,1.8s1.2-0.7,2.6-1.3c-0.2-0.4-0.4-0.9-0.6-1.4
					c-0.3-0.9-0.5-2.1-0.5-2.1s1.2,0.4,2.3,1.4c0.6,0.5,1.1,1.1,1.4,1.4c0.1,0,0.2,0,0.3,0c2.4-0.1,3.9,0.7,4.6,1.7
					c0,0-0.9-2.8-3.7-4.3c-1.4-0.8-3.5-1.3-4.8-2c-1.1-0.5-1.8-1.2-2.1-1.6c-0.3-0.4-0.5-0.5-0.3,0.1
					C150.5,156.7,150.7,157.3,150.8,158.4z"/>
				<path d="M145.2,167.1c2.1-0.4,4.8-2.2,4.8-2.2s-0.3-0.5-0.5-1.4c-0.6,0.3-2,1.2-3.5,1.6c-2,0.6-4.3,0.4-4.3,0.4s1.7-1.2,3.7-2.1
					c1.6-0.7,3.3-1.1,4-1.2c-0.1-1.2,0.2-1.9,0.2-1.9s-2.7-0.8-5.6,0.8c-2.5,1.3-5.7,3.3-7.6,3.7c-1.7,0.3-2.6,0.4-3.3,0.2
					c-0.7-0.2-0.6,0.2-0.2,0.3c0.4,0.1,2.3,0.7,3.9,0.9C138.1,166.7,141.4,167.9,145.2,167.1z"/>
				<path d="M141.8,154.5c0,1.1-0.7,2.9-0.5,4.2c0.2,1.3,0.9,2.5,0.9,2.5s1.2-0.9,2.7-1.5c-0.2-0.3-0.6-1.1-0.8-1.8
					c-0.3-1-0.4-2.1-0.4-2.1s1.1,0.9,1.6,1.6c0.4,0.6,0.9,1.6,1,1.9c0,0,0.1,0,0.1,0c1.8-0.2,3,0.1,3,0.1s-0.2-1.7-1.3-2.9
					c-1.1-1.2-2.5-2.1-3.6-2.6c-1.1-0.5-2.3-1.3-2.5-1.7c-0.8-1.2-1-1.1-0.5,0.1C141.6,152.8,141.7,153.2,141.8,154.5z"/>
				<path d="M132.5,154.1c0,1.3,0.6,2.6,0.6,2.6s1.3-0.7,2.8-1.1c-0.2-0.4-0.5-1.1-0.6-1.8c-0.2-1-0.2-2.1-0.2-2.1s1,0.9,1.5,1.7
					c0.4,0.6,0.8,1.7,0.8,2c0.1,0,0.1,0,0.2,0c1.8,0,2.9,0.4,2.9,0.4s0-1.7-0.9-3c-1-1.3-2.4-2.3-3.5-3c-1-0.6-2.1-1.6-2.3-2
					c-0.7-1.3-0.8-1.3-0.5,0c0.1,0.4,0.2,0.8,0.1,2.1C133.2,151.2,132.5,152.8,132.5,154.1z"/>
				<path d="M127.3,158.6c2.6-0.2,4.7-1.4,4.7-1.4s-0.3-0.6-0.5-1.3c-0.4,0.1-2,0.5-3.5,0.7c-1.8,0.3-4.8-0.6-4.8-0.6
					s2.8-1.3,4.5-1.5c1.6-0.2,3.6,0.3,3.7,0.3c0-0.1,0-0.2,0-0.4c0.1-1.3,0.4-2.1,0.4-2.1s-2.2-1.6-5.4-0.8c-1.2,0.3-2.5,0.9-4,1.7
					c-1.6,0.9-3.7,1.3-4.8,1.2c-1.1-0.1-1.7-0.3-2.3-0.6c-0.7-0.4-0.7,0-0.3,0.2c0.4,0.2,2.4,1.3,3.7,2
					C120.1,156.7,123.6,158.9,127.3,158.6z"/>
				<path d="M136.5,163.6c2.6-0.4,4.5-1.8,4.5-1.8s-0.4-0.6-0.6-1.4c-0.5,0.2-2,0.6-3.4,1c-1.8,0.4-4.9-0.2-4.9-0.2s2.7-1.6,4.4-1.9
					c1.5-0.3,3.4-0.1,3.7,0c0-0.1,0-0.1,0-0.2c0-1.3,0.2-2.1,0.2-2.1s-2.3-1.4-5.4-0.4c-1.2,0.4-2.4,1.1-3.9,2
					c-1.6,1-3.6,1.6-4.7,1.6c-1.1,0-1.7-0.1-2.4-0.4c-0.7-0.3-0.6,0.1-0.3,0.2c0.4,0.2,2.4,1.1,3.9,1.7
					C129.2,162.1,132.9,164.1,136.5,163.6z"/>
				<path d="M127.6,150.4c-0.1-0.4-0.2-1.1-0.2-1.8c0-1,0.3-2.1,0.3-2.1s0.8,1.1,1.1,2c0.2,0.6,0.3,1.4,0.4,1.9c0.1,0,0.2,0,0.2,0
					c1.8,0.3,2.6,0.9,2.6,0.9s0.5-1.7-0.3-3.1c-0.7-1.5-2-2.7-3-3.5c-0.9-0.8-1.8-1.9-1.9-2.4c-0.4-1.4-0.6-1.4-0.5-0.1
					c0,0.4,0.1,0.9-0.3,2.1c-0.3,1.1-1.2,2.6-1.4,3.9c-0.2,1.3,0.1,2.7,0.1,2.7S126,150.6,127.6,150.4z"/>
				<path d="M123.6,151.6c0,0-0.2-0.6-0.4-1.3c-0.4,0.1-2,0.3-3.6,0.4c-1.8,0.1-4.8-1-4.8-1s2.9-1.1,4.6-1.1c1.7,0,3.7,0.6,3.7,0.6
					l0,0c0-0.1,0-0.3,0-0.4c0.2-1.2,0.6-2.1,0.6-2.1s-2-1.8-5.3-1.3c-1.3,0.2-2.5,0.6-4.1,1.3c-1.7,0.7-3.8,0.9-4.9,0.7
					c-1.1-0.2-1.6-0.4-2.3-0.8c-0.6-0.4-0.6-0.1-0.3,0.2c0.3,0.2,2.2,1.5,3.5,2.3c1.4,0.8,4.7,3.4,8.3,3.5
					C121.4,152.6,123.6,151.6,123.6,151.6z"/>
				<path d="M117,144.8c0,0,1.3-0.3,2.8-0.3c0-0.4-0.1-1.2,0-2c0.1-1,0.5-2,0.5-2s0.7,1.2,0.9,2.1c0.2,0.7,0.2,1.7,0.2,2.1
					c0.1,0,0.3,0.1,0.4,0.1c1.7,0.5,2.5,1.2,2.5,1.2s0.6-1.6,0-3.1c-0.6-1.5-1.7-2.9-2.6-3.8c-0.8-0.9-1.6-2.1-1.7-2.5
					c-0.3-1.4-0.5-1.4-0.5-0.1c0,0.4,0,0.9-0.5,2.1c-0.4,1.1-1.5,2.4-1.8,3.7C116.8,143.3,117,144.8,117,144.8z"/>
				<path d="M115.8,145.2c0,0-0.2-0.6-0.2-1.3c-0.5,0-2.1,0.1-3.6,0c-1.8-0.1-4.6-1.5-4.6-1.5s3-0.8,4.7-0.6c1.5,0.1,3.2,0.9,3.5,1
					c0-0.1,0-0.3,0.1-0.4c0.4-1.2,0.8-2,0.8-2s-1.8-2-5.1-1.9c-1.3,0.1-2.6,0.4-4.3,0.8c-1.8,0.5-3.9,0.5-4.9,0.2
					c-1.1-0.3-1.6-0.6-2.2-1.1c-0.6-0.5-0.6-0.1-0.3,0.1c0.3,0.2,2,1.8,3.3,2.7c1.3,1,4.3,3.9,7.9,4.3
					C113.5,146,115.8,145.2,115.8,145.2z"/>
				<path d="M109.9,137.7c0,0,1.3-0.2,2.8,0c0-0.4-0.1-1.2,0.1-2c0.2-1,0.6-2,0.6-2s0.6,1.3,0.8,2.1c0.1,0.8,0.1,1.9,0,2.2
					c0.1,0,0.3,0.1,0.4,0.1c1.7,0.7,2.4,1.5,2.4,1.5s0.8-1.6,0.4-3.1c-0.4-1.6-1.4-3.1-2.2-4c-0.7-1-1.4-2.2-1.4-2.7
					c-0.2-1.4-0.3-1.5-0.5-0.2c-0.1,0.4-0.1,0.9-0.7,2c-0.5,1-1.7,2.3-2.2,3.5C109.9,136.3,109.9,137.7,109.9,137.7z"/>
				<path d="M108.7,138c0,0-0.1-0.5-0.1-1.2c-0.6,0-2-0.1-3.4-0.2c-1.8-0.2-4.5-1.7-4.5-1.7s3.1-0.6,4.7-0.4
					c1.4,0.2,2.9,0.9,3.4,1.1c0-0.1,0.1-0.3,0.1-0.4c0.5-1.2,1-1.9,1-1.9s-1.6-2.2-4.9-2.4c-1.3-0.1-2.6,0.1-4.3,0.4
					c-1.8,0.3-3.9,0.1-4.9-0.2c-1.1-0.4-1.5-0.8-2-1.3c-0.5-0.5-0.6-0.2-0.3,0.1c0.3,0.3,1.9,1.9,3,3c1.2,1.1,3.9,4.3,7.5,5.1
					C106.4,138.6,108.7,138,108.7,138z"/>
				<path d="M103.6,130c0,0,1.4-0.1,2.9,0.3c0-0.4,0.1-1.2,0.3-2c0.3-1,0.8-1.9,0.8-1.9s0.5,1.3,0.6,2.2c0.1,0.8-0.1,1.9-0.2,2.2
					c0.1,0,0.1,0.1,0.2,0.1c1.6,0.9,2.2,1.7,2.2,1.7s1-1.5,0.7-3.1c-0.3-1.6-1.1-3.2-1.8-4.2c-0.6-1-1.1-2.3-1.2-2.8
					c0-1.4-0.2-1.5-0.5-0.2c-0.1,0.4-0.2,0.8-0.9,1.9c-0.6,0.9-1.9,2.1-2.5,3.3C103.8,128.6,103.6,130,103.6,130z"/>
				<path d="M97.6,129.3c2.4,1,4.8,0.8,4.8,0.8s0-0.7,0.1-1.4c-0.5-0.1-2-0.4-3.5-0.8c-1.8-0.5-4.2-2.5-4.2-2.5s3.1-0.1,4.7,0.5
					c1.6,0.5,3.2,1.7,3.2,1.8c0-0.1,0.1-0.2,0.2-0.3c0.7-1.1,1.3-1.7,1.3-1.7s-1.2-2.4-4.4-3.1c-1.3-0.3-2.6-0.3-4.3-0.3
					c-1.8,0-3.9-0.5-4.8-1c-1-0.6-1.4-1-1.8-1.6c-0.5-0.6-0.6-0.3-0.4,0c0.2,0.3,1.5,2.2,2.4,3.4C92.1,124.3,94.3,127.9,97.6,129.3z
					"/>
				<path d="M99.8,118.9c-0.8,1.1-1.1,2.5-1.1,2.5s1.4,0.2,2.8,0.8c0.1-0.3,0.3-1.2,0.6-1.9c0.5-0.9,1.1-1.8,1.1-1.8
					s0.3,1.4,0.2,2.3c-0.1,0.8-0.5,2-0.6,2.2c0.1,0.1,0.2,0.1,0.2,0.2c1.4,1.1,1.9,2,1.9,2s1.2-1.3,1.2-2.9c0-1.6-0.6-3.3-1.1-4.5
					c-0.5-1.1-0.8-2.5-0.7-3c0.2-1.4,0.1-1.5-0.4-0.3c-0.2,0.4-0.3,0.8-1.2,1.7C102.1,116.9,100.6,117.8,99.8,118.9z"/>
				<path d="M92.8,120.1c2.3,1.2,4.7,1.3,4.7,1.3s0.1-0.8,0.4-1.6c-0.5-0.2-2-0.6-3.3-1.2c-1.7-0.7-3.9-3-3.9-3s3.1,0.3,4.7,1
					c1.5,0.7,2.9,2,3,2.1c0,0,0-0.1,0.1-0.1c0.8-1,1.5-1.6,1.5-1.6s-1-2.5-4.1-3.5c-1.2-0.4-2.5-0.6-4.3-0.7
					c-1.8-0.2-3.8-0.9-4.7-1.5c-0.9-0.7-1.3-1.1-1.6-1.8c-0.4-0.7-0.6-0.3-0.4,0c0.2,0.3,1.3,2.4,2.1,3.7
					C87.7,114.5,89.6,118.4,92.8,120.1z"/>
				<path d="M96,109.9c-0.9,1-1.3,2.3-1.3,2.3s1.5,0.3,2.9,1.1c0.1-0.4,0.4-1.1,0.8-1.7c0.6-0.9,1.3-1.6,1.3-1.6s0.1,1.4-0.1,2.3
					c-0.2,0.7-0.6,1.6-0.8,1.9c0,0,0,0,0,0c1.3,1.2,1.7,2.2,1.7,2.2s1.3-1.2,1.5-2.8c0.1-1.6-0.3-3.4-0.6-4.6
					c-0.4-1.2-0.5-2.5-0.4-3c0.4-1.4,0.2-1.5-0.4-0.3c-0.2,0.4-0.4,0.8-1.4,1.6C98.4,108.2,96.9,108.9,96,109.9z"/>
				<path d="M175,167.7c-5-1.4-9.9-1.6-13.5-1.6c-0.5-1.7-2-3.4-5.3-2.7c-2.5,0.5-5.5,2.7-7.5,3.8c-1.9,1.1-4,2.3-5.4,2.6
					c-1.4,0.3-2.2,0.4-2.4,0.5c-0.4,0.1-0.5,0.3,0.2,0.4c0.7,0.1,3.4,0,5.8,0.4c2.4,0.5,6.2,1.9,9.5,1.3c3.6-0.7,5-2.7,5.3-4.5
					c0-0.1,0-0.3,0-0.5c4.1,0.2,9,0.9,12.8,2.2c7.3,2.5,12.5,6.6,14.9,9.1l0.2-0.2l1.4-1.4C187.8,173.9,182.4,169.9,175,167.7z
					 M156.9,169.7c-1.9,1-5,0.3-5,0.3s2.5-2.1,4.3-2.8c1.8-0.7,4.2,0,4.2,0S158.9,168.7,156.9,169.7z"/>
				<path d="M90.8,111.1c0.8,0.5,2.5,1.1,2.5,1.1s0,0,0-0.1c-0.3-0.6-1-2-1.3-3.1c-0.5-1.8,0-5.9,0-5.9s1.8,3.5,2,5.2
					c0.1,0.8,0.1,1.5,0.1,2.2c0.2-0.4,0.5-0.8,0.7-1.1c0.7-0.9,2.1-1.7,2.1-1.7s0-0.8-0.1-1.2c-0.1-0.4-0.3-1.8-1.2-3.7
					c-1.1-2.1-1.8-3.4-2.3-4.9C92.7,96,93,94,93,93.6c0-0.3-0.3-0.3-0.3,0c0,0.3-0.9,2.6-1.5,4.7c-0.6,2.1-3,5.4-2.8,8.1
					C88.4,108.4,89.9,110.6,90.8,111.1z"/>
			</g>
			<g>
				<path d="M213.8,170.3c-0.2,0-1.1-0.2-2.4-0.5c-1.4-0.3-3.4-1.5-5.4-2.6c-1.9-1.1-4.9-3.3-7.5-3.8c-3.3-0.6-4.9,1-5.3,2.7
					c-3.7,0-8.6,0.1-13.5,1.6c-7.5,2.2-12.8,6.2-16,9.4l1.4,1.4l0.2,0.2c2.4-2.4,7.6-6.6,14.9-9.1c3.8-1.3,8.7-2,12.8-2.2
					c0,0.2,0,0.3,0,0.5c0.2,1.8,1.7,3.7,5.3,4.5c3.3,0.7,7.1-0.8,9.5-1.3c2.4-0.5,5.1-0.4,5.8-0.4
					C214.3,170.6,214.2,170.3,213.8,170.3z M197.7,169.7c-1.9-1-3.5-2.5-3.5-2.5s2.4-0.7,4.1,0c1.8,0.7,4.3,2.8,4.3,2.8
					S199.6,170.7,197.7,169.7z"/>
				<path d="M198,162.3c0.1,0,0.2,0,0.3,0c0.3-0.4,0.8-0.9,1.4-1.4c1.1-1,2.3-1.4,2.3-1.4s-0.2,1.2-0.5,2.1c-0.2,0.5-0.4,1-0.6,1.4
					c1.4,0.6,2.6,1.3,2.6,1.3s0.4-0.6,0.5-1.8c0.1-1.1-0.2-2.9-0.1-4c0.1-1.1,0.3-1.7,0.4-2.2c0.2-0.7,0-0.6-0.3-0.1
					c-0.3,0.4-1,1.1-2.1,1.6c-1.4,0.7-3.4,1.2-4.8,2c-2.8,1.5-3.7,4.3-3.7,4.3C194.1,163,195.6,162.2,198,162.3z"/>
				<path d="M221.7,165.2c-0.7,0.2-1.7,0.1-3.3-0.2c-1.9-0.4-5.1-2.4-7.6-3.7c-2.9-1.5-5.6-0.8-5.6-0.8s0.2,0.7,0.2,1.9
					c0.6,0.1,2.4,0.5,4,1.2c2,0.9,3.7,2.1,3.7,2.1s-2.3,0.2-4.3-0.4c-1.5-0.5-2.9-1.3-3.5-1.6c-0.2,0.8-0.5,1.4-0.5,1.4
					s2.6,1.7,4.8,2.2c3.8,0.8,7.1-0.5,8.7-0.8c1.6-0.3,3.5-0.9,3.9-0.9C222.4,165.3,222.5,165,221.7,165.2z"/>
				<path d="M208.1,159.4c0,0,0.1,0,0.1,0c0.1-0.3,0.5-1.3,1-1.9c0.5-0.7,1.6-1.6,1.6-1.6s-0.1,1.1-0.4,2.1
					c-0.2,0.7-0.6,1.5-0.8,1.8c1.5,0.5,2.7,1.5,2.7,1.5s0.7-1.2,0.9-2.5c0.2-1.3-0.5-3-0.5-4.2c0-1.3,0.2-1.7,0.3-2.1
					c0.5-1.2,0.3-1.3-0.5-0.1c-0.3,0.4-1.4,1.2-2.5,1.7c-1.1,0.5-2.5,1.4-3.6,2.6c-1.1,1.2-1.3,2.9-1.3,2.9S206.3,159.2,208.1,159.4
					z"/>
				<path d="M217.2,155.5c0.1-0.3,0.4-1.4,0.8-2c0.5-0.7,1.5-1.7,1.5-1.7s0,1.1-0.2,2.1c-0.1,0.7-0.5,1.5-0.6,1.8
					c1.5,0.4,2.8,1.1,2.8,1.1s0.5-1.3,0.6-2.6c0-1.3-0.6-2.9-0.8-4.1c-0.2-1.3,0-1.7,0.1-2.1c0.3-1.3,0.1-1.3-0.5,0
					c-0.2,0.4-1.3,1.4-2.3,2c-1,0.6-2.5,1.7-3.5,3c-1,1.3-0.9,3-0.9,3s1.1-0.4,2.9-0.4C217.1,155.5,217.2,155.5,217.2,155.5z"/>
				<path d="M239.4,153.8c-0.7,0.3-1.2,0.6-2.3,0.6c-1.1,0.1-3.1-0.4-4.8-1.2c-1.5-0.8-2.7-1.4-4-1.7c-3.2-0.8-5.4,0.8-5.4,0.8
					s0.3,0.9,0.4,2.1c0,0.1,0,0.2,0,0.4c0.1,0,2.1-0.5,3.7-0.3c1.7,0.2,4.5,1.5,4.5,1.5s-3,0.8-4.8,0.6c-1.5-0.2-3.1-0.6-3.5-0.7
					c-0.2,0.7-0.5,1.3-0.5,1.3s2,1.2,4.7,1.4c3.6,0.3,7.2-2,8.6-2.7c1.4-0.7,3.4-1.8,3.7-2C240,153.8,240.1,153.5,239.4,153.8z"/>
				<path d="M230.5,159.7c-0.7,0.3-1.2,0.5-2.4,0.4c-1.1,0-3.1-0.6-4.7-1.6c-1.5-0.9-2.6-1.6-3.9-2c-3.1-1-5.4,0.4-5.4,0.4
					s0.2,0.9,0.3,2.1c0,0.1,0,0.1,0,0.2c0.3,0,2.2-0.3,3.7,0c1.7,0.3,4.4,1.9,4.4,1.9s-3.1,0.6-4.9,0.2c-1.4-0.3-2.9-0.8-3.4-1
					c-0.3,0.8-0.6,1.4-0.6,1.4s1.9,1.4,4.5,1.8c3.6,0.6,7.3-1.4,8.8-2c1.4-0.5,3.5-1.5,3.9-1.7C231.1,159.7,231.2,159.4,230.5,159.7
					z"/>
				<path d="M225.3,150.5c0.1,0,0.2,0,0.2,0c0-0.5,0.2-1.3,0.4-1.9c0.3-0.8,1.1-2,1.1-2s0.2,1,0.3,2.1c0,0.6-0.1,1.3-0.2,1.8
					c1.5,0.1,2.9,0.6,2.9,0.6s0.3-1.4,0.1-2.7c-0.2-1.3-1.1-2.8-1.4-3.9c-0.4-1.2-0.3-1.7-0.3-2.1c0.1-1.3-0.1-1.3-0.5,0.1
					c-0.2,0.5-1,1.6-1.9,2.4c-0.9,0.8-2.2,2.1-3,3.5c-0.7,1.5-0.3,3.1-0.3,3.1S223.5,150.9,225.3,150.5z"/>
				<path d="M247.3,146.6c-0.6,0.4-1.1,0.7-2.3,0.8c-1.1,0.2-3.1-0.1-4.9-0.7c-1.6-0.6-2.9-1.1-4.1-1.3c-3.3-0.5-5.3,1.3-5.3,1.3
					s0.4,0.8,0.6,2.1c0,0.1,0,0.3,0,0.4l0,0c0,0,2-0.7,3.7-0.6c1.7,0,4.6,1.1,4.6,1.1s-2.9,1.1-4.8,1c-1.6-0.1-3.2-0.3-3.6-0.4
					c-0.1,0.7-0.4,1.3-0.4,1.3s2.1,1,4.8,1c3.6-0.1,7-2.7,8.3-3.5c1.3-0.8,3.2-2.1,3.5-2.3C248,146.5,248,146.2,247.3,146.6z"/>
				<path d="M232.9,144.7c0.1,0,0.3-0.1,0.4-0.1c0-0.4,0-1.4,0.2-2.1c0.2-0.9,0.9-2.1,0.9-2.1s0.4,1,0.5,2c0.1,0.8,0,1.6,0,2
					c1.5,0,2.8,0.3,2.8,0.3s0.2-1.4-0.2-2.7c-0.3-1.3-1.4-2.7-1.8-3.7c-0.5-1.2-0.5-1.6-0.5-2.1c0-1.3-0.2-1.3-0.5,0.1
					c-0.1,0.5-0.9,1.7-1.7,2.5c-0.8,0.9-2,2.3-2.6,3.8c-0.6,1.5,0,3.1,0,3.1S231.2,145.2,232.9,144.7z"/>
				<path d="M254.5,138.5c-0.6,0.5-1.1,0.8-2.2,1.1c-1,0.3-3.1,0.3-4.9-0.2c-1.7-0.5-3-0.8-4.3-0.8c-3.3-0.1-5.1,1.9-5.1,1.9
					s0.5,0.8,0.8,2c0,0.1,0.1,0.3,0.1,0.4c0.3-0.1,2-0.9,3.5-1c1.7-0.1,4.7,0.6,4.7,0.6s-2.8,1.4-4.6,1.5c-1.5,0.1-3.1,0-3.6,0
					c0,0.8-0.2,1.3-0.2,1.3s2.2,0.8,4.8,0.5c3.6-0.4,6.7-3.4,7.9-4.3c1.2-0.9,2.9-2.4,3.3-2.7C255.2,138.4,255.1,138,254.5,138.5z"
					/>
				<path d="M240,138.1c0.1-0.1,0.3-0.1,0.4-0.1c0-0.3-0.1-1.4,0-2.2c0.2-0.9,0.8-2.1,0.8-2.1s0.4,1,0.6,2c0.1,0.8,0.1,1.7,0.1,2
					c1.5-0.2,2.8,0,2.8,0s0-1.4-0.4-2.7c-0.5-1.2-1.7-2.5-2.2-3.5c-0.6-1.1-0.7-1.6-0.7-2c-0.2-1.3-0.3-1.2-0.5,0.2
					c-0.1,0.5-0.7,1.7-1.4,2.7c-0.7,1-1.7,2.5-2.2,4c-0.4,1.6,0.4,3.1,0.4,3.1S238.3,138.8,240,138.1z"/>
				<path d="M260.8,129.8c-0.5,0.5-1,0.9-2,1.3c-1,0.4-3.1,0.6-4.9,0.2c-1.7-0.3-3-0.5-4.3-0.4c-3.3,0.2-4.9,2.4-4.9,2.4
					s0.5,0.7,1,1.9c0.1,0.1,0.1,0.3,0.1,0.4c0.5-0.2,2-0.9,3.4-1.1c1.7-0.2,4.7,0.4,4.7,0.4s-2.7,1.6-4.5,1.7
					c-1.4,0.1-2.8,0.2-3.4,0.2c0,0.7-0.1,1.2-0.1,1.2s2.3,0.6,4.9,0c3.5-0.8,6.3-4,7.5-5.1c1.1-1,2.7-2.7,3-3
					C261.5,129.7,261.4,129.3,260.8,129.8z"/>
				<path d="M246.4,130.9c0.1,0,0.1-0.1,0.2-0.1c-0.1-0.3-0.3-1.4-0.2-2.2c0.1-0.9,0.6-2.2,0.6-2.2s0.5,0.9,0.8,1.9
					c0.2,0.7,0.3,1.6,0.3,2c1.5-0.4,2.9-0.3,2.9-0.3s-0.1-1.4-0.7-2.6c-0.6-1.2-1.9-2.3-2.5-3.3c-0.7-1.1-0.8-1.5-0.9-1.9
					c-0.3-1.3-0.4-1.2-0.5,0.2c0,0.5-0.5,1.8-1.2,2.8c-0.6,1-1.5,2.6-1.8,4.2c-0.3,1.6,0.7,3.1,0.7,3.1S244.8,131.7,246.4,130.9z"/>
				<path d="M265.6,119.6c-0.4,0.6-0.8,1-1.8,1.6c-0.9,0.5-3,1.1-4.8,1c-1.7,0-3.1,0-4.3,0.3c-3.2,0.7-4.4,3.1-4.4,3.1
					s0.7,0.6,1.3,1.7c0.1,0.1,0.1,0.2,0.1,0.3c0.1-0.1,1.7-1.3,3.2-1.8c1.6-0.5,4.7-0.5,4.7-0.5s-2.4,2-4.2,2.5
					c-1.4,0.4-3,0.7-3.5,0.8c0.2,0.8,0.1,1.4,0.1,1.4s2.4,0.2,4.8-0.8c3.4-1.4,5.6-5,6.5-6.2c0.9-1.2,2.2-3.1,2.4-3.4
					C266.2,119.3,266,118.9,265.6,119.6z"/>
				<path d="M251.5,122.9c0.1-0.1,0.2-0.1,0.2-0.2c-0.1-0.2-0.5-1.3-0.6-2.2c-0.1-0.9,0.2-2.3,0.2-2.3s0.7,0.8,1.1,1.8
					c0.4,0.7,0.5,1.6,0.6,1.9c1.4-0.6,2.8-0.8,2.8-0.8s-0.3-1.4-1.1-2.5c-0.8-1.1-2.3-2-3-2.8c-0.9-0.9-1-1.3-1.2-1.7
					c-0.5-1.2-0.6-1.1-0.4,0.3c0.1,0.5-0.2,1.9-0.7,3c-0.5,1.1-1,2.8-1.1,4.5c0,1.6,1.2,2.9,1.2,2.9S250,124,251.5,122.9z"/>
				<path d="M269.4,109.5c-0.4,0.6-0.7,1.1-1.6,1.8c-0.9,0.6-2.8,1.4-4.7,1.5c-1.7,0.1-3.1,0.3-4.3,0.7c-3.1,1-4.1,3.5-4.1,3.5
					s0.7,0.6,1.5,1.6c0,0,0,0.1,0.1,0.1c0.1-0.1,1.5-1.5,3-2.1c1.5-0.7,4.7-1,4.7-1s-2.2,2.3-3.9,3c-1.3,0.5-2.8,1-3.3,1.2
					c0.3,0.8,0.4,1.6,0.4,1.6s2.4-0.1,4.7-1.3c3.2-1.7,5-5.5,5.9-6.9c0.8-1.3,1.9-3.3,2.1-3.7C270,109.2,269.8,108.9,269.4,109.5z"
					/>
				<path d="M254,116.5c0,0,0.4-1,1.7-2.2c0,0,0,0,0,0c-0.2-0.3-0.6-1.3-0.8-1.9c-0.2-0.9-0.1-2.3-0.1-2.3s0.8,0.7,1.3,1.6
					c0.4,0.6,0.7,1.3,0.8,1.7c1.4-0.8,2.9-1.1,2.9-1.1s-0.5-1.3-1.3-2.3c-0.9-1-2.4-1.8-3.3-2.5c-1-0.8-1.2-1.2-1.4-1.6
					c-0.6-1.2-0.7-1.1-0.4,0.3c0.1,0.5,0,1.9-0.4,3c-0.4,1.2-0.8,2.9-0.6,4.6C252.7,115.4,254,116.5,254,116.5z"/>
				<path d="M259.7,109.3c0.2,0.3,0.5,0.7,0.7,1.1c0-0.6,0.1-1.4,0.1-2.2c0.2-1.7,2-5.2,2-5.2s0.5,4.2,0,5.9c-0.3,1.1-1,2.5-1.3,3.1
					c0,0,0,0.1,0,0.1s1.7-0.6,2.5-1.1c0.8-0.5,2.3-2.7,2.4-4.6c0.1-2.7-2.2-6-2.8-8.1c-0.6-2.1-1.5-4.3-1.5-4.7c0-0.3-0.3-0.4-0.3,0
					c0,0.3,0.3,2.4-0.3,4.2c-0.4,1.5-1.2,2.8-2.3,4.9c-1,1.9-1.2,3.2-1.2,3.7c-0.1,0.5-0.1,1.2-0.1,1.2S259,108.5,259.7,109.3z"/>
			</g>
		</g>
		<g>
			<g>
				<path d="M251.1,84.9c0.1-2-0.9-3.8-2.6-4.6c1.6-0.9,2.7-2.7,2.6-4.6c-0.1-2-1.4-3.6-3.2-4.3c1.5-1.1,2.4-3,2-4.9
					c-0.4-2-1.9-3.4-3.7-3.8c1.4-1.3,2-3.2,1.4-5.1c-0.6-1.9-2.3-3.1-4.1-3.4c1.2-1.4,1.5-3.5,0.7-5.3c-0.8-1.8-2.6-2.8-4.5-2.8
					c1-1.6,1.1-3.6,0-5.3c-1.1-1.7-3-2.5-4.8-2.2c0.8-1.7,0.6-3.7-0.6-5.3c-1.3-1.5-3.3-2.1-5.1-1.6c0.6-1.8,0.2-3.8-1.3-5.2
					c-1.4-1.4-3.5-1.7-5.2-1c0.4-1.8-0.3-3.8-1.9-5c-1.6-1.2-3.7-1.2-5.3-0.3c0.1-1.9-0.8-3.7-2.5-4.7c-1.7-1-3.8-0.7-5.3,0.4
					c-0.1-1.9-1.2-3.6-3.1-4.3c-1.8-0.7-3.9-0.3-5.2,1c-0.3-1.8-1.7-3.4-3.6-3.9c-1.9-0.5-3.9,0.2-5,1.7c-0.6-1.8-2.1-3.2-4.1-3.4
					c-2-0.3-3.8,0.7-4.8,2.3c-0.8-1.7-2.5-2.9-4.5-2.9c-2,0-3.7,1.2-4.5,2.9c-1-1.6-2.8-2.5-4.8-2.3c-2,0.3-3.5,1.6-4.1,3.4
					c-1.2-1.4-3.1-2.2-5-1.7c-1.9,0.5-3.3,2.1-3.6,3.9c-1.3-1.3-3.4-1.8-5.2-1c-1.8,0.7-3,2.5-3.1,4.3c-1.5-1.1-3.6-1.3-5.3-0.4
					c-1.7,1-2.7,2.8-2.5,4.7c-1.6-0.9-3.7-0.9-5.3,0.3c-1.6,1.2-2.3,3.1-1.9,4.9c-1.7-0.7-3.8-0.4-5.2,1c-1.4,1.4-1.9,3.4-1.3,5.2
					c-1.8-0.5-3.8,0.1-5.1,1.6c-1.3,1.5-1.4,3.6-0.6,5.3c-1.8-0.3-3.8,0.6-4.8,2.2c-1.1,1.7-1,3.7,0,5.3c-1.9,0-3.7,1-4.5,2.8
					c-0.8,1.8-0.5,3.8,0.7,5.3c-1.9,0.2-3.5,1.5-4.1,3.4c-0.6,1.9,0,3.9,1.4,5.1c-1.8,0.4-3.3,1.9-3.7,3.8c-0.4,2,0.5,3.8,2,4.9
					c-1.7,0.7-3,2.3-3.2,4.3c-0.1,2,0.9,3.8,2.6,4.6c-1.6,0.9-2.7,2.7-2.6,4.6c0.1,2,1.4,3.6,3.2,4.3c-1.5,1.1-2.4,3-2,4.9
					c0.4,2,1.9,3.4,3.7,3.8c-1.4,1.3-2,3.2-1.4,5.1c0.6,1.9,2.3,3.1,4.1,3.4c-1.2,1.4-1.5,3.5-0.7,5.3c0.8,1.8,2.6,2.8,4.5,2.8
					c-1,1.6-1.1,3.6,0,5.3c1.1,1.7,3,2.5,4.8,2.2c-0.8,1.7-0.6,3.7,0.6,5.3c1.3,1.5,3.3,2.1,5.1,1.6c-0.6,1.8-0.2,3.8,1.3,5.2
					c1.4,1.4,3.5,1.7,5.2,1c-0.4,1.8,0.3,3.8,1.9,4.9c1.6,1.2,3.7,1.2,5.3,0.3c-0.1,1.9,0.8,3.7,2.5,4.7c1.7,1,3.8,0.7,5.3-0.4
					c0.1,1.9,1.2,3.6,3.1,4.3c1.8,0.7,3.9,0.3,5.2-1c0.3,1.8,1.7,3.4,3.6,3.9c1.9,0.5,3.9-0.2,5-1.7c0.6,1.8,2.1,3.2,4.1,3.4
					c2,0.2,3.8-0.7,4.8-2.3c0.8,1.7,2.5,2.9,4.5,2.9c2,0,3.7-1.2,4.5-2.9c1,1.6,2.8,2.5,4.8,2.3c2-0.2,3.5-1.6,4.1-3.4
					c1.2,1.4,3.1,2.2,5,1.7c1.9-0.5,3.3-2.1,3.6-3.9c1.3,1.3,3.4,1.8,5.2,1c1.8-0.7,3-2.5,3.1-4.3c1.5,1.1,3.6,1.3,5.3,0.4
					c1.7-1,2.7-2.8,2.5-4.7c1.6,0.9,3.7,0.9,5.3-0.3c1.6-1.2,2.3-3.1,1.9-5c1.7,0.7,3.8,0.4,5.2-1c1.5-1.4,1.9-3.4,1.3-5.2
					c1.8,0.5,3.8-0.1,5.1-1.6c1.3-1.5,1.4-3.6,0.6-5.3c1.8,0.3,3.8-0.5,4.8-2.2c1.1-1.7,1-3.7,0-5.3c1.9,0,3.7-1,4.5-2.8
					c0.8-1.8,0.5-3.8-0.7-5.3c1.9-0.2,3.5-1.5,4.1-3.4c0.6-1.9,0-3.9-1.4-5.1c1.8-0.4,3.3-1.9,3.7-3.8c0.4-1.9-0.5-3.8-2-4.9
					C249.7,88.5,251,86.9,251.1,84.9z M177.4,148.5c-37.7,0-68.2-30.5-68.2-68.2c0-37.7,30.5-68.2,68.2-68.2
					c37.7,0,68.2,30.5,68.2,68.2C245.6,118,215,148.5,177.4,148.5z"/>
			</g>
			<g>
				<path d="M177.4,146c-36.3,0-65.8-29.5-65.8-65.8c0-36.3,29.5-65.8,65.8-65.8c36.3,0,65.8,29.5,65.8,65.8
					C243.1,116.5,213.6,146,177.4,146z M177.4,16.5c-35.2,0-63.7,28.6-63.7,63.8c0,35.1,28.6,63.8,63.7,63.8
					c35.2,0,63.7-28.6,63.7-63.8C241.1,45.1,212.5,16.5,177.4,16.5z"/>
			</g>
			<g>
				<path d="M177.4,128.7c-26.7,0-48.5-21.7-48.5-48.5c0-26.7,21.7-48.5,48.5-48.5c26.7,0,48.5,21.7,48.5,48.5
					C225.8,107,204.1,128.7,177.4,128.7z M177.4,33.8c-25.6,0-46.5,20.8-46.5,46.5c0,25.6,20.8,46.5,46.5,46.5
					c25.6,0,46.5-20.8,46.5-46.5C223.8,54.7,203,33.8,177.4,33.8z"/>
			</g>
			<path d="M177.4,36.7c24.1,0,43.6,19.5,43.6,43.6c0,24.1-19.5,43.6-43.6,43.6c-24.1,0-43.6-19.5-43.6-43.6
				C133.7,56.2,153.3,36.7,177.4,36.7 M177.4,35.7c-24.6,0-44.6,20-44.6,44.6c0,24.6,20,44.6,44.6,44.6c24.6,0,44.6-20,44.6-44.6
				C222,55.7,202,35.7,177.4,35.7L177.4,35.7z"/>
			<g>
				<path d="M187.1,78c11.4-5.5,15.9-10.6,15.9-18.3c0-4.7-2.1-9-5.9-12c-4.3-3.3-10.6-5.1-18.3-5.1c-11,0-17.7,3.5-21.3,6.4
					c-4.8,3.9-6.5,8.6-6.5,11.6c0,3.6,2.2,5.7,5.9,5.7c2.7,0,5.2-1.7,5.8-3.9c0.1-0.3,0.3-0.8,0-1.3c-0.3-0.4-0.8-0.5-1-0.5
					c-1.5-0.2-1.9-0.5-1.9-1.9c0-3.8,5.5-11.2,18.4-11.2c8.6,0,13.7,4.5,13.7,12.1c0,7.1-4.2,12-14.6,16.9c-1.4,0.7-1.5,1.5-1.5,2
					c0,0.8,0.6,1.4,1.5,1.8c10.2,3.6,13.3,7,13.3,14.3c0,4.6-1.8,8.4-5.2,11c-3.5,2.7-8.7,4.1-15.1,4.1c-8.3,0-14.9-2.3-20.9-7.2
					c-0.3-0.3-0.7-0.4-1.1-0.4c-0.7,0-1.3,0.4-1.6,1.1c-0.2,0.3-0.4,1.3,0.5,2.3c3.5,3.7,11.4,10,25.2,10c17.4,0,30.5-9.3,30.5-21.7
					C202.8,85.9,196.8,79.9,187.1,78z"/>
				<path d="M154.5,98.9c0,4.7,2.5,7.3,6.9,7.3c0.4,0,1.8,0,1.8-1.5c0.1-1.3,0.2-2,0.9-4.5c1.4-4.8,4.3-10.4,7.2-16.3
					c4.7-9.4,9.6-19.1,9.6-26.7c0-1.8-0.7-3.7-1.9-5.2c-1-1.2-2.8-2.7-5.8-2.7c-1.2,0-2,0.6-2,1.4c0,0.2,0,0.4,0.1,0.7
					c0.1,0.4,0.2,1,0.2,1.6c0,10.7-6.2,22.3-11.1,31.6C157.1,90.9,154.5,95.8,154.5,98.9z"/>
			</g>
			<g>
				<path d="M170.9,51.1c0-0.2,0-0.3,0-0.5c-6.1,2.1-8.7,6.4-8.7,8.5c0,0.2,0,0.3,0,0.4c0.1,0,0.3,0.1,0.6,0.1
					c0.2,0,0.4,0.1,0.6,0.1c0.7-2.4,3.2-5.5,7.6-7.5c0-0.1,0-0.1,0-0.2C170.9,51.7,170.9,51.4,170.9,51.1z"/>
				<path d="M157.9,68.2c-0.7,0-1.4-0.1-2.1-0.2c1,0.8,2.4,1.2,4.1,1.2c2.8,0,5.5-1.8,6.1-4.1c0.1-0.3,0.3-1-0.1-1.6
					c-0.2-0.3-0.5-0.5-0.8-0.6c0,0.2-0.1,0.3-0.1,0.4C164.3,66.1,161.2,68.2,157.9,68.2z"/>
				<path d="M192.1,77.9c0.7,0.2,1.4,0.5,2.1,0.8c8.7-4.8,12.2-9.7,12.2-16.6c0-2.6-0.6-5-1.8-7.2c0.5,1.6,0.8,3.4,0.8,5.2
					C205.4,67.4,201.5,72.8,192.1,77.9z"/>
				<path d="M205.2,94.2c0,13.2-13.7,23.2-31.9,23.2c-5.6,0-10.3-1-14.2-2.5c4.1,2,9.5,3.4,16.2,3.4c17.6,0,30.9-9.5,30.9-22.1
					c0-2.5-0.6-4.9-1.7-6.9C205,90.8,205.2,92.4,205.2,94.2z"/>
				<path d="M186.7,51.1c-2-1.1-4.5-1.7-7.6-1.7c-0.1,0-0.3,0-0.4,0c0.5,0.3,1,0.6,1.4,1c0.3,0,0.7,0,1.1,0
					C183.2,50.3,185,50.6,186.7,51.1z"/>
				<path d="M178.4,75.2c0.8-0.4,1.5-0.8,2.3-1.2c2.2-5.2,3.7-10.2,3.7-14.5c0-1.5-0.5-3.1-1.3-4.5c0.2,0.8,0.3,1.6,0.3,2.4
					C183.4,62.8,181.2,68.9,178.4,75.2z"/>
				<path d="M166.8,105.4c0.3-1.3,0.3-1.3,0.7-2.7c1.4-4.7,4.2-10.3,7.2-16.2c0.8-1.6,1.7-3.5,2.5-5.1c-0.6-0.2-1-0.5-1.4-0.8
					c-0.7,1.4-1.4,2.9-2.2,4.3c-2.9,5.9-5.7,11.4-7.1,16.1c-0.7,2.4-0.7,2.9-0.8,4.1c-0.2,1.2-0.6,2.5-2.3,2.8
					C164.2,108.1,166.3,107.4,166.8,105.4z"/>
			</g>
			<g>
				<path d="M119.4,85.7l0.2,2.6l-1.7,0.2l-0.4-4.7l7.8-0.7l0.2,2.1L119.4,85.7z"/>
				<path d="M124.8,99.9c-2.5,0.7-4.7-0.7-5.4-3.2c-0.7-2.6,0.5-4.9,2.9-5.6c2.3-0.6,4.5,1,5.1,3.3
					C128.1,96.7,127.1,99.2,124.8,99.9z M122.9,93.2c-1.3,0.4-2,1.6-1.6,2.9c0.3,1.2,1.6,2,2.9,1.6c1-0.3,1.7-1.6,1.4-2.8
					C125.2,93.7,124,92.9,122.9,93.2z"/>
				<path d="M131.9,105.7l1.2,2.4l-4.8-1.2l-2,5.1l-1.3-2.5l1.7-4l0,0l-3,1.6l-1-1.9l7-3.7l1,1.9l-2.9,1.5l0,0L131.9,105.7z"/>
				<path d="M130.8,115.9l-1.4,0.4l-1.4-1.8l8.1-2.5l1.5,1.8l-4.2,7.4l-1.4-1.8l0.7-1.3L130.8,115.9z M134.9,114.5L134.9,114.5
					l-2.5,0.9l1.1,1.4L134.9,114.5z"/>
				<path d="M138.8,123.9l1.9,1.7l-1.2,1.3l-3.5-3.1l5.2-5.9l1.6,1.4L138.8,123.9z"/>
				<path d="M147.9,125.3l-0.7,1.1l2,1.3l-0.9,1.5l-2-1.3l-0.7,1.1l2.1,1.4l-0.9,1.5l-3.9-2.6l4.3-6.6l3.9,2.6l-0.9,1.5L147.9,125.3
					z"/>
				<path d="M160.4,137.8l-2.1-0.6l1.8-5.9l-1.7-0.5l0.5-1.7l5.4,1.7l-0.5,1.7l-1.7-0.5L160.4,137.8z"/>
				<path d="M173,140.2l-2.7-0.4l-1.6-3.3l0,0l-0.4,3l-2.1-0.3l1.1-7.8l3.2,0.4c1.6,0.2,2.7,1.1,2.5,2.8c-0.1,1.1-0.9,1.9-2.1,2
					L173,140.2z M168.9,135.3l0.2,0c0.7,0.1,1.5,0.1,1.6-0.8c0.1-0.8-0.7-1.1-1.3-1.2l-0.2,0L168.9,135.3z"/>
				<path d="M178.8,138.9l-0.5,1.4l-2.3,0.1l2.8-8l2.3-0.1l3.5,7.7l-2.3,0.1l-0.6-1.3L178.8,138.9z M180.1,134.7L180.1,134.7
					l-0.8,2.5l1.8-0.1L180.1,134.7z"/>
				<path d="M186.8,131.6l3-0.7c2.2-0.6,4.5,0.6,5,2.8c0.5,2.1-0.9,4.3-3.1,4.8l-3,0.7L186.8,131.6z M190.4,137l0.5-0.1
					c1.2-0.3,2.1-1.2,1.8-2.7c-0.3-1.4-1.5-1.9-2.8-1.6l-0.5,0.1L190.4,137z"/>
				<path d="M201.8,135l-2,0.8l-3.1-7.2l2-0.8L201.8,135z"/>
				<path d="M206.9,125.6c-0.5-0.1-1,0-1.5,0.3c-0.3,0.2-0.7,0.7-0.4,1c0.2,0.4,0.8,0.2,1.2,0.1l0.5-0.1c1.2-0.3,2.2-0.3,2.9,0.8
					c0.4,0.7,0.7,1.5,0.4,2.3c-0.3,0.8-0.9,1.4-1.6,1.8c-0.9,0.5-1.9,0.8-3,0.7l-0.1-1.9c0.7,0.1,1.4,0.1,2.1-0.3
					c0.4-0.3,0.8-0.7,0.5-1.2c-0.3-0.5-1.1-0.2-1.6-0.1c-1.3,0.4-2.3,0.6-3.1-0.7c-0.8-1.4-0.3-2.9,1.1-3.7c0.7-0.4,1.7-0.7,2.5-0.8
					L206.9,125.6z"/>
				<path d="M212.4,118.8l3.4,4.1c1.1,1.3,1.1,2.7-0.3,3.9c-0.7,0.6-1.5,0.7-2.4,0.5l0.1-1.7c0.4,0.1,0.9,0.1,1.1,0
					c0.5-0.4,0-0.9-0.3-1.3l-3.4-4L212.4,118.8z"/>
				<path d="M223.4,112.2c2,1.6,2.1,4.2,0.5,6.3c-1.7,2.1-4.3,2.4-6.3,0.8c-1.8-1.5-1.7-4.3-0.2-6.1
					C218.8,111.3,221.5,110.7,223.4,112.2z M219,117.6c1,0.9,2.5,0.7,3.3-0.3c0.8-1,0.7-2.4-0.3-3.3c-0.8-0.7-2.3-0.5-3.1,0.5
					C218,115.4,218.1,116.9,219,117.6z"/>
				<path d="M221.9,107.4l1-1.9l6.1-1.3l0,0l-4.3-2.2l1-1.9l7,3.6l-1,1.9l-6.1,1.3l0,0l4.3,2.2l-1,1.9L221.9,107.4z"/>
				<path d="M229,95.2l1.3,0.4l0.7-2.3l1.7,0.5l-0.7,2.3l1.3,0.4l0.7-2.5l1.7,0.5l-1.3,4.5l-7.6-2.2l1.3-4.5l1.7,0.5L229,95.2z"/>
				<path d="M237.3,83l-0.3,2.7l-3.2,1.7l0,0l3,0.3l-0.2,2.1l-7.8-0.8l0.3-3.2c0.2-1.6,1-2.8,2.7-2.6c1.1,0.1,1.9,0.8,2,2L237.3,83z
					 M232.5,87.2l0-0.2c0.1-0.7,0-1.5-0.8-1.6c-0.9-0.1-1.1,0.7-1.1,1.4l0,0.2L232.5,87.2z"/>
			</g>
			<g>
				<g>
					<path d="M142,42l-5-6.1l2.4-2c1.1-0.9,2.2-1.1,3.2,0c0.5,0.5,0.6,1.1,0.3,1.8l0,0c1-0.6,1.9-0.4,2.6,0.5c1,1.3,0.2,2.6-0.9,3.6
						L142,42z M140.6,37l0.2-0.2c0.4-0.4,0.8-0.8,0.4-1.3c-0.5-0.6-1-0.2-1.4,0.2l-0.1,0.1L140.6,37z M142.6,39.5l0.2-0.2
						c0.5-0.4,1.3-1.1,0.8-1.7c-0.6-0.7-1.4,0-1.9,0.5l-0.2,0.1L142.6,39.5z"/>
					<path d="M149.5,34.7l0.2,1.5l-2,1.1l-1.2-8.4l2-1.2l6.6,5.3l-2,1.1l-1.1-0.9L149.5,34.7z M148.8,30.4L148.8,30.4l0.5,2.6
						l1.6-0.9L148.8,30.4z"/>
					<path d="M158.7,23.4l2.5-0.9l-1.9,4.6l4.8,2.7l-2.6,0.9l-3.7-2.3l0,0l1.1,3.2l-2,0.7l-2.6-7.4l2-0.7l1.1,3.1l0,0L158.7,23.4z"
						/>
					<path d="M167.6,23l0.2,1.3l2.4-0.4l0.3,1.7l-2.4,0.4l0.2,1.3l2.5-0.4l0.3,1.7l-4.6,0.8l-1.3-7.8l4.6-0.8l0.3,1.7L167.6,23z"/>
					<path d="M179.8,23.5l0-3l2.2,0l-0.1,7.9l-2.2,0l0.1-3.2l-3.1,0l-0.1,3.2l-2.1,0l0.1-7.9l2.1,0l0,3L179.8,23.5z"/>
					<path d="M193.6,22.6l-0.9,4.3c-0.2,1-0.5,2-1.4,2.5c-0.8,0.5-1.9,0.5-2.9,0.3c-0.9-0.2-2-0.7-2.5-1.4c-0.6-0.9-0.5-1.9-0.3-2.9
						l0.9-4.3l2.1,0.5l-0.9,4.1c-0.2,1-0.4,2.1,1,2.4c1.4,0.3,1.7-0.8,1.9-1.8l0.9-4.1L193.6,22.6z"/>
					<path d="M201,27.5c-0.2-0.4-0.6-0.8-1.1-1c-0.4-0.2-0.9-0.1-1.1,0.3c-0.2,0.4,0.3,0.8,0.6,1.1l0.4,0.4c0.9,0.7,1.6,1.6,1.1,2.8
						c-0.3,0.7-0.8,1.4-1.6,1.6c-0.8,0.2-1.7,0.1-2.5-0.2c-1-0.4-1.8-1.1-2.3-1.9l1.5-1.2c0.3,0.6,0.8,1.2,1.5,1.5
						c0.5,0.2,1.1,0.2,1.3-0.3c0.2-0.5-0.5-1-0.9-1.3c-1.1-0.9-1.8-1.5-1.2-2.9c0.6-1.5,2.1-2,3.6-1.4c0.8,0.3,1.6,0.9,2.1,1.6
						L201,27.5z"/>
					<path d="M207.4,30.5l-0.7,1.1l2.1,1.3l-0.9,1.5l-2.1-1.3l-0.7,1.2l2.2,1.3l-0.9,1.5l-4-2.4l4.1-6.7l4,2.4l-0.9,1.5L207.4,30.5z
						"/>
					<path d="M211.7,41.3l-1.6-1.4l4-4.7l-1.4-1.1l1.1-1.3l4.4,3.7l-1.1,1.3l-1.4-1.1L211.7,41.3z"/>
				</g>
			</g>
			<circle cx="229.1" cy="59.2" r="1.8"/>
			<circle cx="125.5" cy="59.2" r="1.8"/>
		</g>
	</g>
</g>
</svg>
